<?xml version="1.0" standalone="no"?>
<!DOCTYPE svg PUBLIC "-//W3C//DTD SVG 20010904//EN"
 "http://www.w3.org/TR/2001/REC-SVG-20010904/DTD/svg10.dtd">
<svg version="1.0" xmlns="http://www.w3.org/2000/svg"
 width="338.000000pt" height="338.000000pt" viewBox="0 0 338.000000 338.000000"
 preserveAspectRatio="xMidYMid meet">
<metadata>
Created by potrace 1.14, written by Peter Selinger 2001-2017
</metadata>
<g transform="translate(0.000000,338.000000) scale(0.100000,-0.100000)"
fill="#000000" stroke="none">
<path d="M1636 3118 c-3 -18 -26 -458 -51 -978 -26 -519 -48 -946 -50 -949 -7
-6 -127 30 -168 51 -88 44 -154 126 -194 239 l-27 74 -6 435 c-5 421 -6 437
-29 501 -50 144 -159 219 -327 227 -140 7 -234 -27 -319 -115 -73 -75 -95
-148 -95 -320 l0 -123 35 0 35 0 0 49 c0 70 25 192 49 239 46 91 101 132 173
132 50 0 81 -18 106 -63 15 -29 18 -80 22 -502 l5 -470 28 -80 c38 -107 70
-159 137 -225 109 -106 224 -156 437 -192 71 -11 129 -22 131 -23 2 -2 -4
-135 -13 -296 -8 -161 -15 -319 -15 -351 l0 -58 211 0 211 0 -6 72 c-3 40 -10
174 -16 298 -5 124 -12 255 -15 291 l-6 66 68 17 c96 24 246 98 328 161 175
134 291 350 331 615 29 195 10 658 -31 758 -33 78 -98 122 -180 122 -115 0
-207 -104 -191 -217 3 -25 40 -130 81 -234 42 -104 87 -233 101 -287 23 -86
26 -110 21 -207 -12 -259 -149 -456 -376 -544 -43 -17 -96 -33 -118 -37 l-38
-6 -48 969 c-26 532 -48 974 -47 981 0 8 -20 12 -70 12 l-69 0 -5 -32z"/>
</g>
</svg>
